<mxfile host="Electron" modified="2024-03-16T20:22:27.129Z" agent="Mozilla/5.0 (Windows NT 10.0; Win64; x64) AppleWebKit/537.36 (KHTML, like Gecko) draw.io/24.0.4 Chrome/120.0.6099.109 Electron/28.1.0 Safari/537.36" etag="0Zp35nX5wP0Du3uJ50Vm" version="24.0.4" type="device">
  <diagram name="Strona-1" id="ZPURoTI-YACidWWffcV0">
    <mxGraphModel dx="1594" dy="996" grid="1" gridSize="10" guides="1" tooltips="1" connect="1" arrows="1" fold="1" page="1" pageScale="1" pageWidth="827" pageHeight="1169" math="0" shadow="0">
      <root>
        <mxCell id="0" />
        <mxCell id="1" parent="0" />
        <mxCell id="SLQnQ5sDmMqCRToJFb2x-1" value="1. Identyfikacja misji, wizji &lt;br&gt;i celów uczelni" style="rounded=1;whiteSpace=wrap;html=1;fontSize=13;sketch=1;curveFitting=1;jiggle=2;" parent="1" vertex="1">
          <mxGeometry x="40" width="160" height="120" as="geometry" />
        </mxCell>
        <mxCell id="lhQeCGYUJxPM1-3rOEWA-21" value="" style="edgeStyle=orthogonalEdgeStyle;rounded=0;orthogonalLoop=1;jettySize=auto;html=1;shape=link;" parent="1" source="YzgCYqUCURwKcO3qDLiV-18" target="YzgCYqUCURwKcO3qDLiV-34" edge="1">
          <mxGeometry relative="1" as="geometry" />
        </mxCell>
        <mxCell id="lhQeCGYUJxPM1-3rOEWA-22" value="" style="edgeStyle=orthogonalEdgeStyle;rounded=0;orthogonalLoop=1;jettySize=auto;html=1;shape=arrow;" parent="1" source="YzgCYqUCURwKcO3qDLiV-18" target="YzgCYqUCURwKcO3qDLiV-24" edge="1">
          <mxGeometry relative="1" as="geometry" />
        </mxCell>
        <mxCell id="YzgCYqUCURwKcO3qDLiV-18" value="&lt;font style=&quot;font-size: 12px;&quot;&gt;6. Wybór obszarów &lt;br&gt;do doskonalenia&lt;/font&gt;" style="rounded=1;whiteSpace=wrap;html=1;sketch=1;curveFitting=1;jiggle=2;" parent="1" vertex="1">
          <mxGeometry x="40" y="1040" width="160" height="120" as="geometry" />
        </mxCell>
        <mxCell id="lhQeCGYUJxPM1-3rOEWA-1" style="edgeStyle=orthogonalEdgeStyle;rounded=0;orthogonalLoop=1;jettySize=auto;html=1;entryX=0;entryY=0.5;entryDx=0;entryDy=0;shape=link;" parent="1" source="iZXRrfKID2UvS0r0eVAW-1" target="iZXRrfKID2UvS0r0eVAW-5" edge="1">
          <mxGeometry relative="1" as="geometry" />
        </mxCell>
        <mxCell id="lhQeCGYUJxPM1-3rOEWA-2" value="" style="edgeStyle=orthogonalEdgeStyle;rounded=0;orthogonalLoop=1;jettySize=auto;html=1;shape=arrow;" parent="1" source="iZXRrfKID2UvS0r0eVAW-1" target="iZXRrfKID2UvS0r0eVAW-3" edge="1">
          <mxGeometry relative="1" as="geometry" />
        </mxCell>
        <mxCell id="iZXRrfKID2UvS0r0eVAW-1" value="&lt;font style=&quot;font-size: 13px;&quot;&gt;2. Identyfikacja istotnych interesariuszy&lt;/font&gt;" style="rounded=1;whiteSpace=wrap;html=1;fontSize=13;sketch=1;curveFitting=1;jiggle=2;" parent="1" vertex="1">
          <mxGeometry x="40" y="160" width="160" height="120" as="geometry" />
        </mxCell>
        <mxCell id="iZXRrfKID2UvS0r0eVAW-9" value="" style="edgeStyle=orthogonalEdgeStyle;rounded=0;orthogonalLoop=1;jettySize=auto;html=1;" parent="1" source="iZXRrfKID2UvS0r0eVAW-2" target="iZXRrfKID2UvS0r0eVAW-8" edge="1">
          <mxGeometry relative="1" as="geometry" />
        </mxCell>
        <mxCell id="lhQeCGYUJxPM1-3rOEWA-11" value="" style="edgeStyle=orthogonalEdgeStyle;rounded=0;orthogonalLoop=1;jettySize=auto;html=1;shape=link;dashed=1;dashPattern=1 1;" parent="1" source="iZXRrfKID2UvS0r0eVAW-2" target="YzgCYqUCURwKcO3qDLiV-1" edge="1">
          <mxGeometry relative="1" as="geometry" />
        </mxCell>
        <mxCell id="iZXRrfKID2UvS0r0eVAW-2" value="5.1 Opracowanie narzędzia badawczego" style="rounded=1;whiteSpace=wrap;html=1;" parent="1" vertex="1">
          <mxGeometry x="240" y="660" width="120" height="80" as="geometry" />
        </mxCell>
        <mxCell id="lhQeCGYUJxPM1-3rOEWA-6" value="" style="edgeStyle=orthogonalEdgeStyle;rounded=0;orthogonalLoop=1;jettySize=auto;html=1;shape=arrow;" parent="1" source="iZXRrfKID2UvS0r0eVAW-3" target="SLQnQ5sDmMqCRToJFb2x-2" edge="1">
          <mxGeometry relative="1" as="geometry" />
        </mxCell>
        <mxCell id="lhQeCGYUJxPM1-3rOEWA-7" value="" style="edgeStyle=orthogonalEdgeStyle;rounded=0;orthogonalLoop=1;jettySize=auto;html=1;shape=link;" parent="1" source="iZXRrfKID2UvS0r0eVAW-3" target="iZXRrfKID2UvS0r0eVAW-4" edge="1">
          <mxGeometry relative="1" as="geometry" />
        </mxCell>
        <mxCell id="iZXRrfKID2UvS0r0eVAW-3" value="3. Identyfikacja istotnych obszarów doskonalenia &lt;br&gt;z punktu widzenia interesariuszy – badanie jakościowe" style="rounded=1;whiteSpace=wrap;html=1;sketch=1;curveFitting=1;jiggle=2;" parent="1" vertex="1">
          <mxGeometry x="40" y="320" width="160" height="120" as="geometry" />
        </mxCell>
        <mxCell id="iZXRrfKID2UvS0r0eVAW-13" value="" style="edgeStyle=orthogonalEdgeStyle;rounded=0;orthogonalLoop=1;jettySize=auto;html=1;" parent="1" source="iZXRrfKID2UvS0r0eVAW-4" target="iZXRrfKID2UvS0r0eVAW-12" edge="1">
          <mxGeometry relative="1" as="geometry" />
        </mxCell>
        <mxCell id="iZXRrfKID2UvS0r0eVAW-4" value="3.1 Wybór celowy grupy respondentów do wywiadów jakościowych&lt;br&gt;(w tym kierownictwo)" style="rounded=1;whiteSpace=wrap;html=1;" parent="1" vertex="1">
          <mxGeometry x="240" y="340" width="120" height="80" as="geometry" />
        </mxCell>
        <mxCell id="iZXRrfKID2UvS0r0eVAW-7" value="" style="edgeStyle=orthogonalEdgeStyle;rounded=0;orthogonalLoop=1;jettySize=auto;html=1;" parent="1" source="iZXRrfKID2UvS0r0eVAW-5" target="iZXRrfKID2UvS0r0eVAW-6" edge="1">
          <mxGeometry relative="1" as="geometry" />
        </mxCell>
        <mxCell id="iZXRrfKID2UvS0r0eVAW-5" value="2.1 Analiza szerokiego spektrum potencjalnych interesariuszy uczelni" style="rounded=1;whiteSpace=wrap;html=1;" parent="1" vertex="1">
          <mxGeometry x="240" y="180" width="120" height="80" as="geometry" />
        </mxCell>
        <mxCell id="iZXRrfKID2UvS0r0eVAW-11" value="" style="edgeStyle=orthogonalEdgeStyle;rounded=0;orthogonalLoop=1;jettySize=auto;html=1;" parent="1" source="iZXRrfKID2UvS0r0eVAW-6" target="iZXRrfKID2UvS0r0eVAW-10" edge="1">
          <mxGeometry relative="1" as="geometry" />
        </mxCell>
        <mxCell id="iZXRrfKID2UvS0r0eVAW-6" value="2.2 Opis cech każdej z grup w celu ich klasyfikacji" style="whiteSpace=wrap;html=1;rounded=1;" parent="1" vertex="1">
          <mxGeometry x="400" y="180" width="120" height="80" as="geometry" />
        </mxCell>
        <mxCell id="iZXRrfKID2UvS0r0eVAW-19" value="" style="edgeStyle=orthogonalEdgeStyle;rounded=0;orthogonalLoop=1;jettySize=auto;html=1;" parent="1" source="iZXRrfKID2UvS0r0eVAW-8" target="iZXRrfKID2UvS0r0eVAW-18" edge="1">
          <mxGeometry relative="1" as="geometry" />
        </mxCell>
        <mxCell id="iZXRrfKID2UvS0r0eVAW-8" value="5.2 Wybór metody doboru grupy badawczej&amp;nbsp;" style="whiteSpace=wrap;html=1;rounded=1;" parent="1" vertex="1">
          <mxGeometry x="240" y="760" width="120" height="80" as="geometry" />
        </mxCell>
        <mxCell id="lhQeCGYUJxPM1-3rOEWA-8" style="edgeStyle=orthogonalEdgeStyle;rounded=0;orthogonalLoop=1;jettySize=auto;html=1;exitX=1;exitY=0.5;exitDx=0;exitDy=0;entryX=0.75;entryY=0;entryDx=0;entryDy=0;dashed=1;strokeWidth=2;" parent="1" source="iZXRrfKID2UvS0r0eVAW-10" target="iZXRrfKID2UvS0r0eVAW-3" edge="1">
          <mxGeometry relative="1" as="geometry">
            <Array as="points">
              <mxPoint x="700" y="220" />
              <mxPoint x="700" y="300" />
              <mxPoint x="160" y="300" />
            </Array>
          </mxGeometry>
        </mxCell>
        <mxCell id="iZXRrfKID2UvS0r0eVAW-10" value="2.3 Wybór najistotniejszych grup interesariuszy przy uwzględnieniu misji &lt;br&gt;i celów organizacji" style="whiteSpace=wrap;html=1;rounded=1;" parent="1" vertex="1">
          <mxGeometry x="560" y="180" width="120" height="80" as="geometry" />
        </mxCell>
        <mxCell id="iZXRrfKID2UvS0r0eVAW-15" value="" style="edgeStyle=orthogonalEdgeStyle;rounded=0;orthogonalLoop=1;jettySize=auto;html=1;" parent="1" source="iZXRrfKID2UvS0r0eVAW-12" target="iZXRrfKID2UvS0r0eVAW-14" edge="1">
          <mxGeometry relative="1" as="geometry" />
        </mxCell>
        <mxCell id="iZXRrfKID2UvS0r0eVAW-12" value="3.2 Opracowanie planu wywiadów umożliwiającego osiągnięcie celu badania" style="rounded=1;whiteSpace=wrap;html=1;" parent="1" vertex="1">
          <mxGeometry x="380" y="340" width="120" height="80" as="geometry" />
        </mxCell>
        <mxCell id="iZXRrfKID2UvS0r0eVAW-17" value="" style="edgeStyle=orthogonalEdgeStyle;rounded=0;orthogonalLoop=1;jettySize=auto;html=1;" parent="1" source="iZXRrfKID2UvS0r0eVAW-14" target="iZXRrfKID2UvS0r0eVAW-16" edge="1">
          <mxGeometry relative="1" as="geometry" />
        </mxCell>
        <mxCell id="iZXRrfKID2UvS0r0eVAW-14" value="3.3 Przeprowadzenie wywiadów badania jakościowego" style="rounded=1;whiteSpace=wrap;html=1;" parent="1" vertex="1">
          <mxGeometry x="520" y="340" width="120" height="80" as="geometry" />
        </mxCell>
        <mxCell id="lhQeCGYUJxPM1-3rOEWA-9" style="edgeStyle=orthogonalEdgeStyle;rounded=0;orthogonalLoop=1;jettySize=auto;html=1;exitX=1;exitY=0.5;exitDx=0;exitDy=0;entryX=0.75;entryY=0;entryDx=0;entryDy=0;dashed=1;strokeWidth=2;" parent="1" source="iZXRrfKID2UvS0r0eVAW-16" target="SLQnQ5sDmMqCRToJFb2x-2" edge="1">
          <mxGeometry relative="1" as="geometry">
            <Array as="points">
              <mxPoint x="800" y="380" />
              <mxPoint x="800" y="460" />
              <mxPoint x="160" y="460" />
            </Array>
          </mxGeometry>
        </mxCell>
        <mxCell id="iZXRrfKID2UvS0r0eVAW-16" value="3.4 Analiza &lt;br&gt;wyników wywiadu&lt;br&gt;–&amp;nbsp; obszary doskonalenia" style="rounded=1;whiteSpace=wrap;html=1;" parent="1" vertex="1">
          <mxGeometry x="660" y="340" width="120" height="80" as="geometry" />
        </mxCell>
        <mxCell id="iZXRrfKID2UvS0r0eVAW-21" value="" style="edgeStyle=orthogonalEdgeStyle;rounded=0;orthogonalLoop=1;jettySize=auto;html=1;" parent="1" source="iZXRrfKID2UvS0r0eVAW-18" target="iZXRrfKID2UvS0r0eVAW-20" edge="1">
          <mxGeometry relative="1" as="geometry" />
        </mxCell>
        <mxCell id="iZXRrfKID2UvS0r0eVAW-18" value="5.3 Weryfikacja narzędzia pomiarowego&lt;br&gt;– pilotaż" style="whiteSpace=wrap;html=1;rounded=1;" parent="1" vertex="1">
          <mxGeometry x="380" y="760" width="120" height="80" as="geometry" />
        </mxCell>
        <mxCell id="iZXRrfKID2UvS0r0eVAW-23" value="" style="edgeStyle=orthogonalEdgeStyle;rounded=0;orthogonalLoop=1;jettySize=auto;html=1;" parent="1" source="iZXRrfKID2UvS0r0eVAW-20" target="iZXRrfKID2UvS0r0eVAW-22" edge="1">
          <mxGeometry relative="1" as="geometry" />
        </mxCell>
        <mxCell id="iZXRrfKID2UvS0r0eVAW-20" value="5.4 Wprowadzenie ewentualnych korekt do narzędzia pomiarowego" style="whiteSpace=wrap;html=1;rounded=1;" parent="1" vertex="1">
          <mxGeometry x="520" y="760" width="120" height="80" as="geometry" />
        </mxCell>
        <mxCell id="lhQeCGYUJxPM1-3rOEWA-14" value="" style="edgeStyle=orthogonalEdgeStyle;rounded=0;orthogonalLoop=1;jettySize=auto;html=1;" parent="1" source="iZXRrfKID2UvS0r0eVAW-22" target="iZXRrfKID2UvS0r0eVAW-26" edge="1">
          <mxGeometry relative="1" as="geometry" />
        </mxCell>
        <mxCell id="iZXRrfKID2UvS0r0eVAW-22" value="5.5 Przeprowadzenie badania właściwego" style="whiteSpace=wrap;html=1;rounded=1;" parent="1" vertex="1">
          <mxGeometry x="660" y="760" width="120" height="80" as="geometry" />
        </mxCell>
        <mxCell id="lhQeCGYUJxPM1-3rOEWA-15" value="" style="edgeStyle=orthogonalEdgeStyle;rounded=0;orthogonalLoop=1;jettySize=auto;html=1;" parent="1" source="iZXRrfKID2UvS0r0eVAW-26" target="YzgCYqUCURwKcO3qDLiV-7" edge="1">
          <mxGeometry relative="1" as="geometry" />
        </mxCell>
        <mxCell id="lhQeCGYUJxPM1-3rOEWA-20" value="" style="edgeStyle=orthogonalEdgeStyle;rounded=0;orthogonalLoop=1;jettySize=auto;html=1;shape=link;dashed=1;dashPattern=1 1;" parent="1" source="iZXRrfKID2UvS0r0eVAW-26" target="YzgCYqUCURwKcO3qDLiV-9" edge="1">
          <mxGeometry relative="1" as="geometry" />
        </mxCell>
        <mxCell id="iZXRrfKID2UvS0r0eVAW-26" value="5.6 Analiza wyników badania" style="whiteSpace=wrap;html=1;rounded=1;" parent="1" vertex="1">
          <mxGeometry x="660" y="860" width="120" height="80" as="geometry" />
        </mxCell>
        <mxCell id="lhQeCGYUJxPM1-3rOEWA-5" value="" style="edgeStyle=orthogonalEdgeStyle;rounded=0;orthogonalLoop=1;jettySize=auto;html=1;shape=arrow;" parent="1" source="SLQnQ5sDmMqCRToJFb2x-1" target="iZXRrfKID2UvS0r0eVAW-1" edge="1">
          <mxGeometry relative="1" as="geometry" />
        </mxCell>
        <mxCell id="lhQeCGYUJxPM1-3rOEWA-10" value="" style="edgeStyle=orthogonalEdgeStyle;rounded=0;orthogonalLoop=1;jettySize=auto;html=1;shape=arrow;" parent="1" source="SLQnQ5sDmMqCRToJFb2x-2" target="SLQnQ5sDmMqCRToJFb2x-3" edge="1">
          <mxGeometry relative="1" as="geometry" />
        </mxCell>
        <mxCell id="SLQnQ5sDmMqCRToJFb2x-2" value="&lt;font style=&quot;font-size: 12px;&quot;&gt;4.&lt;span style=&quot;line-height: 150%; font-family: Arial, sans-serif;&quot;&gt;Analiza zewnętrznych źródeł informacji&lt;br&gt;potencjalnie skorelowanych&lt;br&gt;z wynikami działań organizacji wobec interesariuszy&lt;/span&gt;&amp;nbsp;&lt;/font&gt;" style="rounded=1;whiteSpace=wrap;html=1;sketch=1;curveFitting=1;jiggle=2;" parent="1" vertex="1">
          <mxGeometry x="40" y="480" width="160" height="120" as="geometry" />
        </mxCell>
        <mxCell id="lhQeCGYUJxPM1-3rOEWA-12" value="" style="edgeStyle=orthogonalEdgeStyle;rounded=0;orthogonalLoop=1;jettySize=auto;html=1;shape=link;" parent="1" source="SLQnQ5sDmMqCRToJFb2x-3" target="iZXRrfKID2UvS0r0eVAW-2" edge="1">
          <mxGeometry relative="1" as="geometry" />
        </mxCell>
        <mxCell id="lhQeCGYUJxPM1-3rOEWA-16" style="edgeStyle=orthogonalEdgeStyle;rounded=0;orthogonalLoop=1;jettySize=auto;html=1;entryX=0.5;entryY=0;entryDx=0;entryDy=0;shape=arrow;" parent="1" source="SLQnQ5sDmMqCRToJFb2x-3" target="YzgCYqUCURwKcO3qDLiV-18" edge="1">
          <mxGeometry relative="1" as="geometry" />
        </mxCell>
        <mxCell id="SLQnQ5sDmMqCRToJFb2x-3" value="&lt;font style=&quot;font-size: 12px;&quot;&gt;5. Statystyczna weryfikacja poziomu satysfakcji interesariuszy oraz istotności innych wniosków&amp;nbsp;&lt;br&gt;z badania jakościowego&lt;/font&gt;" style="rounded=1;whiteSpace=wrap;html=1;sketch=1;curveFitting=1;jiggle=2;" parent="1" vertex="1">
          <mxGeometry x="40" y="640" width="160" height="120" as="geometry" />
        </mxCell>
        <mxCell id="YzgCYqUCURwKcO3qDLiV-2" value="" style="edgeStyle=orthogonalEdgeStyle;rounded=0;orthogonalLoop=1;jettySize=auto;html=1;entryX=0;entryY=0.5;entryDx=0;entryDy=0;dashed=1;dashPattern=1 1;endArrow=classic;endFill=0;" parent="1" source="YzgCYqUCURwKcO3qDLiV-1" target="YzgCYqUCURwKcO3qDLiV-3" edge="1">
          <mxGeometry relative="1" as="geometry">
            <mxPoint x="620" y="629" as="targetPoint" />
          </mxGeometry>
        </mxCell>
        <mxCell id="YzgCYqUCURwKcO3qDLiV-1" value="&lt;i&gt;5.1.1 Wybór szczegółowych pytań pomiaru SSI&lt;/i&gt;" style="rounded=1;whiteSpace=wrap;html=1;dashed=1;dashPattern=1 1;" parent="1" vertex="1">
          <mxGeometry x="390" y="670" width="120" height="60" as="geometry" />
        </mxCell>
        <mxCell id="lhQeCGYUJxPM1-3rOEWA-13" style="edgeStyle=orthogonalEdgeStyle;rounded=0;orthogonalLoop=1;jettySize=auto;html=1;entryX=0.75;entryY=0;entryDx=0;entryDy=0;dashed=1;" parent="1" source="YzgCYqUCURwKcO3qDLiV-3" target="iZXRrfKID2UvS0r0eVAW-8" edge="1">
          <mxGeometry relative="1" as="geometry">
            <Array as="points">
              <mxPoint x="660" y="700" />
              <mxPoint x="660" y="750" />
              <mxPoint x="330" y="750" />
            </Array>
          </mxGeometry>
        </mxCell>
        <mxCell id="YzgCYqUCURwKcO3qDLiV-3" value="&lt;i&gt;5.1.2 Opracowanie pytań dodatkowych&lt;/i&gt;" style="rounded=1;whiteSpace=wrap;html=1;dashed=1;dashPattern=1 1;" parent="1" vertex="1">
          <mxGeometry x="529" y="670" width="120" height="60" as="geometry" />
        </mxCell>
        <mxCell id="lhQeCGYUJxPM1-3rOEWA-17" style="edgeStyle=orthogonalEdgeStyle;rounded=0;orthogonalLoop=1;jettySize=auto;html=1;exitX=0;exitY=0.75;exitDx=0;exitDy=0;dashed=1;entryX=0.75;entryY=0;entryDx=0;entryDy=0;strokeWidth=2;" parent="1" source="YzgCYqUCURwKcO3qDLiV-7" target="YzgCYqUCURwKcO3qDLiV-18" edge="1">
          <mxGeometry relative="1" as="geometry">
            <mxPoint x="150" y="1020" as="targetPoint" />
          </mxGeometry>
        </mxCell>
        <mxCell id="YzgCYqUCURwKcO3qDLiV-7" value="5.7 Opracowanie raportu z badania" style="whiteSpace=wrap;html=1;rounded=1;" parent="1" vertex="1">
          <mxGeometry x="660" y="960" width="120" height="80" as="geometry" />
        </mxCell>
        <mxCell id="YzgCYqUCURwKcO3qDLiV-12" value="" style="edgeStyle=orthogonalEdgeStyle;rounded=0;orthogonalLoop=1;jettySize=auto;html=1;endArrow=classic;endFill=0;" parent="1" source="YzgCYqUCURwKcO3qDLiV-9" target="YzgCYqUCURwKcO3qDLiV-11" edge="1">
          <mxGeometry relative="1" as="geometry" />
        </mxCell>
        <mxCell id="YzgCYqUCURwKcO3qDLiV-9" value="&lt;i&gt;5.6.1 Weryfikacja reprezentatywności grupy badawczej&lt;/i&gt;" style="whiteSpace=wrap;html=1;rounded=1;dashed=1;dashPattern=1 1;" parent="1" vertex="1">
          <mxGeometry x="510" y="870" width="120" height="60" as="geometry" />
        </mxCell>
        <mxCell id="YzgCYqUCURwKcO3qDLiV-14" value="" style="edgeStyle=orthogonalEdgeStyle;rounded=0;orthogonalLoop=1;jettySize=auto;html=1;endArrow=classic;endFill=0;" parent="1" source="YzgCYqUCURwKcO3qDLiV-11" target="YzgCYqUCURwKcO3qDLiV-13" edge="1">
          <mxGeometry relative="1" as="geometry" />
        </mxCell>
        <mxCell id="YzgCYqUCURwKcO3qDLiV-11" value="&lt;i&gt;5.6.2 Weryfikacja statystycznej istotności uzyskanych wyników&lt;/i&gt;" style="whiteSpace=wrap;html=1;rounded=1;dashed=1;dashPattern=1 1;" parent="1" vertex="1">
          <mxGeometry x="370" y="870" width="120" height="60" as="geometry" />
        </mxCell>
        <mxCell id="YzgCYqUCURwKcO3qDLiV-16" value="" style="edgeStyle=orthogonalEdgeStyle;rounded=0;orthogonalLoop=1;jettySize=auto;html=1;endArrow=classic;endFill=0;" parent="1" source="YzgCYqUCURwKcO3qDLiV-13" target="YzgCYqUCURwKcO3qDLiV-15" edge="1">
          <mxGeometry relative="1" as="geometry" />
        </mxCell>
        <mxCell id="YzgCYqUCURwKcO3qDLiV-13" value="&lt;i&gt;5.6.3 Obliczenie &lt;br&gt;miar istotnych wskaźników (w tym SSI)&amp;nbsp;&lt;/i&gt;" style="whiteSpace=wrap;html=1;rounded=1;dashed=1;dashPattern=1 1;" parent="1" vertex="1">
          <mxGeometry x="230" y="870" width="120" height="60" as="geometry" />
        </mxCell>
        <mxCell id="YzgCYqUCURwKcO3qDLiV-17" value="" style="edgeStyle=orthogonalEdgeStyle;rounded=0;orthogonalLoop=1;jettySize=auto;html=1;dashed=1;entryX=0;entryY=0.25;entryDx=0;entryDy=0;" parent="1" source="YzgCYqUCURwKcO3qDLiV-15" target="YzgCYqUCURwKcO3qDLiV-7" edge="1">
          <mxGeometry relative="1" as="geometry" />
        </mxCell>
        <mxCell id="YzgCYqUCURwKcO3qDLiV-15" value="&lt;i&gt;5.6.4 Analiza relacji wartości obliczonych wskaźników z innymi miarami&lt;/i&gt;" style="whiteSpace=wrap;html=1;rounded=1;dashed=1;dashPattern=1 1;" parent="1" vertex="1">
          <mxGeometry x="230" y="950" width="120" height="60" as="geometry" />
        </mxCell>
        <mxCell id="YzgCYqUCURwKcO3qDLiV-36" value="" style="edgeStyle=orthogonalEdgeStyle;rounded=0;orthogonalLoop=1;jettySize=auto;html=1;entryX=0.5;entryY=0;entryDx=0;entryDy=0;" parent="1" source="YzgCYqUCURwKcO3qDLiV-19" target="YzgCYqUCURwKcO3qDLiV-35" edge="1">
          <mxGeometry relative="1" as="geometry">
            <Array as="points">
              <mxPoint x="440" y="1360" />
            </Array>
          </mxGeometry>
        </mxCell>
        <mxCell id="YzgCYqUCURwKcO3qDLiV-19" value="7.3 Określenie wstępnej wizji celu &lt;br&gt;do poprawy" style="rounded=1;whiteSpace=wrap;html=1;" parent="1" vertex="1">
          <mxGeometry x="220" y="1330" width="120" height="60" as="geometry" />
        </mxCell>
        <mxCell id="YzgCYqUCURwKcO3qDLiV-23" value="" style="edgeStyle=orthogonalEdgeStyle;rounded=0;orthogonalLoop=1;jettySize=auto;html=1;entryX=0;entryY=0.5;entryDx=0;entryDy=0;" parent="1" source="YzgCYqUCURwKcO3qDLiV-20" target="YzgCYqUCURwKcO3qDLiV-22" edge="1">
          <mxGeometry relative="1" as="geometry" />
        </mxCell>
        <mxCell id="YzgCYqUCURwKcO3qDLiV-20" value="6.2 Analiza potencjału poprawy&amp;nbsp;" style="rounded=1;whiteSpace=wrap;html=1;" parent="1" vertex="1">
          <mxGeometry x="400" y="1060" width="120" height="80" as="geometry" />
        </mxCell>
        <mxCell id="lhQeCGYUJxPM1-3rOEWA-37" style="edgeStyle=orthogonalEdgeStyle;rounded=0;orthogonalLoop=1;jettySize=auto;html=1;exitX=1;exitY=0.5;exitDx=0;exitDy=0;entryX=0.75;entryY=0;entryDx=0;entryDy=0;dashed=1;strokeWidth=2;" parent="1" source="YzgCYqUCURwKcO3qDLiV-22" target="YzgCYqUCURwKcO3qDLiV-24" edge="1">
          <mxGeometry relative="1" as="geometry">
            <Array as="points">
              <mxPoint x="700" y="1100" />
              <mxPoint x="700" y="1180" />
              <mxPoint x="160" y="1180" />
            </Array>
          </mxGeometry>
        </mxCell>
        <mxCell id="YzgCYqUCURwKcO3qDLiV-22" value="6.3 Wybór szczegółowych obszarów do poprawy" style="rounded=1;whiteSpace=wrap;html=1;" parent="1" vertex="1">
          <mxGeometry x="560" y="1060" width="120" height="80" as="geometry" />
        </mxCell>
        <mxCell id="lhQeCGYUJxPM1-3rOEWA-23" value="" style="edgeStyle=orthogonalEdgeStyle;rounded=0;orthogonalLoop=1;jettySize=auto;html=1;shape=link;" parent="1" source="YzgCYqUCURwKcO3qDLiV-24" target="YzgCYqUCURwKcO3qDLiV-25" edge="1">
          <mxGeometry relative="1" as="geometry" />
        </mxCell>
        <mxCell id="lhQeCGYUJxPM1-3rOEWA-28" style="edgeStyle=orthogonalEdgeStyle;rounded=0;orthogonalLoop=1;jettySize=auto;html=1;exitX=0.5;exitY=1;exitDx=0;exitDy=0;entryX=0.5;entryY=0;entryDx=0;entryDy=0;shape=arrow;" parent="1" source="YzgCYqUCURwKcO3qDLiV-24" target="YzgCYqUCURwKcO3qDLiV-65" edge="1">
          <mxGeometry relative="1" as="geometry" />
        </mxCell>
        <mxCell id="YzgCYqUCURwKcO3qDLiV-24" value="7. Implementacja zmian &lt;br&gt;w celu osiągnięcia poprawy w wybranych obszarach" style="rounded=1;whiteSpace=wrap;html=1;sketch=1;curveFitting=1;jiggle=2;" parent="1" vertex="1">
          <mxGeometry x="40" y="1200" width="160" height="120" as="geometry" />
        </mxCell>
        <mxCell id="YzgCYqUCURwKcO3qDLiV-27" value="" style="edgeStyle=orthogonalEdgeStyle;rounded=0;orthogonalLoop=1;jettySize=auto;html=1;entryX=0;entryY=0.5;entryDx=0;entryDy=0;" parent="1" source="YzgCYqUCURwKcO3qDLiV-25" target="YzgCYqUCURwKcO3qDLiV-28" edge="1">
          <mxGeometry relative="1" as="geometry">
            <mxPoint x="380" y="1460" as="targetPoint" />
          </mxGeometry>
        </mxCell>
        <mxCell id="YzgCYqUCURwKcO3qDLiV-25" value="7.1 Zapewnienie zaangażowania&lt;br&gt;i wsparcia kierownictwa&amp;nbsp;" style="rounded=1;whiteSpace=wrap;html=1;" parent="1" vertex="1">
          <mxGeometry x="240" y="1220" width="120" height="80" as="geometry" />
        </mxCell>
        <mxCell id="YzgCYqUCURwKcO3qDLiV-30" style="edgeStyle=orthogonalEdgeStyle;rounded=0;orthogonalLoop=1;jettySize=auto;html=1;exitX=0;exitY=1;exitDx=0;exitDy=0;entryX=0.5;entryY=0;entryDx=0;entryDy=0;" parent="1" source="YzgCYqUCURwKcO3qDLiV-28" target="YzgCYqUCURwKcO3qDLiV-19" edge="1">
          <mxGeometry relative="1" as="geometry">
            <mxPoint x="278" y="1329" as="targetPoint" />
            <Array as="points">
              <mxPoint x="468" y="1312" />
              <mxPoint x="280" y="1312" />
            </Array>
          </mxGeometry>
        </mxCell>
        <mxCell id="YzgCYqUCURwKcO3qDLiV-32" value="Zwinne" style="edgeLabel;html=1;align=center;verticalAlign=middle;resizable=0;points=[];" parent="YzgCYqUCURwKcO3qDLiV-30" vertex="1" connectable="0">
          <mxGeometry x="0.0094" y="1" relative="1" as="geometry">
            <mxPoint as="offset" />
          </mxGeometry>
        </mxCell>
        <mxCell id="YzgCYqUCURwKcO3qDLiV-31" style="edgeStyle=orthogonalEdgeStyle;rounded=0;orthogonalLoop=1;jettySize=auto;html=1;exitX=1;exitY=1;exitDx=0;exitDy=0;entryX=0.5;entryY=0;entryDx=0;entryDy=0;" parent="1" source="YzgCYqUCURwKcO3qDLiV-28" target="YzgCYqUCURwKcO3qDLiV-52" edge="1">
          <mxGeometry relative="1" as="geometry">
            <mxPoint x="718" y="1329" as="targetPoint" />
            <Array as="points">
              <mxPoint x="548" y="1312" />
              <mxPoint x="720" y="1312" />
            </Array>
          </mxGeometry>
        </mxCell>
        <mxCell id="YzgCYqUCURwKcO3qDLiV-33" value="Kaskadowe" style="edgeLabel;html=1;align=center;verticalAlign=middle;resizable=0;points=[];" parent="YzgCYqUCURwKcO3qDLiV-31" vertex="1" connectable="0">
          <mxGeometry x="-0.2279" relative="1" as="geometry">
            <mxPoint as="offset" />
          </mxGeometry>
        </mxCell>
        <mxCell id="YzgCYqUCURwKcO3qDLiV-28" value="7.2 Przypisanie &lt;br&gt;metody wdrażania &lt;br&gt;zmian w zależności &lt;br&gt;od charekterystyki &lt;br&gt;problemu" style="rhombus;whiteSpace=wrap;html=1;" parent="1" vertex="1">
          <mxGeometry x="428" y="1185" width="160" height="150" as="geometry" />
        </mxCell>
        <mxCell id="YzgCYqUCURwKcO3qDLiV-66" value="" style="edgeStyle=orthogonalEdgeStyle;rounded=0;orthogonalLoop=1;jettySize=auto;html=1;entryX=0;entryY=0.5;entryDx=0;entryDy=0;" parent="1" source="YzgCYqUCURwKcO3qDLiV-34" target="YzgCYqUCURwKcO3qDLiV-20" edge="1">
          <mxGeometry relative="1" as="geometry" />
        </mxCell>
        <mxCell id="YzgCYqUCURwKcO3qDLiV-34" value="6.1 Analiza przyczyn wyzwań w obszarach ujawnionych przez badanie" style="rounded=1;whiteSpace=wrap;html=1;" parent="1" vertex="1">
          <mxGeometry x="240" y="1060" width="120" height="80" as="geometry" />
        </mxCell>
        <mxCell id="YzgCYqUCURwKcO3qDLiV-38" value="" style="edgeStyle=orthogonalEdgeStyle;rounded=0;orthogonalLoop=1;jettySize=auto;html=1;entryX=0.5;entryY=0;entryDx=0;entryDy=0;" parent="1" source="YzgCYqUCURwKcO3qDLiV-35" target="YzgCYqUCURwKcO3qDLiV-37" edge="1">
          <mxGeometry relative="1" as="geometry" />
        </mxCell>
        <mxCell id="YzgCYqUCURwKcO3qDLiV-35" value="7.4 Określenie przewidywanych etapów wdrożenia &lt;br&gt;i celów cząstkowych" style="rounded=1;whiteSpace=wrap;html=1;" parent="1" vertex="1">
          <mxGeometry x="380" y="1379" width="120" height="60" as="geometry" />
        </mxCell>
        <mxCell id="YzgCYqUCURwKcO3qDLiV-40" value="" style="edgeStyle=orthogonalEdgeStyle;rounded=0;orthogonalLoop=1;jettySize=auto;html=1;exitX=1;exitY=0.5;exitDx=0;exitDy=0;entryX=0.5;entryY=0;entryDx=0;entryDy=0;" parent="1" source="YzgCYqUCURwKcO3qDLiV-37" target="YzgCYqUCURwKcO3qDLiV-39" edge="1">
          <mxGeometry relative="1" as="geometry" />
        </mxCell>
        <mxCell id="YzgCYqUCURwKcO3qDLiV-37" value="7.5 Ustalenie szczegółów pracy zespołu doskonalącego" style="rounded=1;whiteSpace=wrap;html=1;" parent="1" vertex="1">
          <mxGeometry x="220" y="1430" width="120" height="60" as="geometry" />
        </mxCell>
        <mxCell id="YzgCYqUCURwKcO3qDLiV-42" value="" style="edgeStyle=orthogonalEdgeStyle;rounded=0;orthogonalLoop=1;jettySize=auto;html=1;entryX=0.5;entryY=0;entryDx=0;entryDy=0;" parent="1" source="YzgCYqUCURwKcO3qDLiV-39" target="YzgCYqUCURwKcO3qDLiV-41" edge="1">
          <mxGeometry relative="1" as="geometry" />
        </mxCell>
        <mxCell id="YzgCYqUCURwKcO3qDLiV-39" value="7.6 Określenie minimalnego zakresu pierwszej weryfikowalnej wersji wdrożonych zmian" style="rounded=1;whiteSpace=wrap;html=1;" parent="1" vertex="1">
          <mxGeometry x="380" y="1480" width="120" height="80" as="geometry" />
        </mxCell>
        <mxCell id="YzgCYqUCURwKcO3qDLiV-44" value="" style="edgeStyle=orthogonalEdgeStyle;rounded=0;orthogonalLoop=1;jettySize=auto;html=1;entryX=0.5;entryY=0;entryDx=0;entryDy=0;" parent="1" source="YzgCYqUCURwKcO3qDLiV-41" target="YzgCYqUCURwKcO3qDLiV-43" edge="1">
          <mxGeometry relative="1" as="geometry" />
        </mxCell>
        <mxCell id="YzgCYqUCURwKcO3qDLiV-41" value="7.7 Ustalenie wstępnego planu działań wraz z ich przewidywanymi kosztami oraz zależnościami" style="rounded=1;whiteSpace=wrap;html=1;" parent="1" vertex="1">
          <mxGeometry x="220" y="1540" width="120" height="90" as="geometry" />
        </mxCell>
        <mxCell id="YzgCYqUCURwKcO3qDLiV-46" value="" style="edgeStyle=orthogonalEdgeStyle;rounded=0;orthogonalLoop=1;jettySize=auto;html=1;entryX=0.5;entryY=0;entryDx=0;entryDy=0;" parent="1" source="YzgCYqUCURwKcO3qDLiV-43" target="YzgCYqUCURwKcO3qDLiV-45" edge="1">
          <mxGeometry relative="1" as="geometry">
            <Array as="points">
              <mxPoint x="280" y="1635" />
            </Array>
          </mxGeometry>
        </mxCell>
        <mxCell id="YzgCYqUCURwKcO3qDLiV-43" value="7.8 Iteracyjne wdrażanie zmian i ich bieżąca weryfikacja" style="rounded=1;whiteSpace=wrap;html=1;" parent="1" vertex="1">
          <mxGeometry x="380" y="1610" width="120" height="50" as="geometry" />
        </mxCell>
        <mxCell id="YzgCYqUCURwKcO3qDLiV-48" value="" style="edgeStyle=orthogonalEdgeStyle;rounded=0;orthogonalLoop=1;jettySize=auto;html=1;entryX=0.5;entryY=0;entryDx=0;entryDy=0;" parent="1" source="YzgCYqUCURwKcO3qDLiV-45" target="YzgCYqUCURwKcO3qDLiV-47" edge="1">
          <mxGeometry relative="1" as="geometry" />
        </mxCell>
        <mxCell id="YzgCYqUCURwKcO3qDLiV-45" value="7.9 Iteracyjne przeglądy &lt;br&gt;i doskonalenie sposobów pracy &lt;br&gt;i współpracy zespołu" style="rounded=1;whiteSpace=wrap;html=1;" parent="1" vertex="1">
          <mxGeometry x="220" y="1650" width="120" height="80" as="geometry" />
        </mxCell>
        <mxCell id="YzgCYqUCURwKcO3qDLiV-47" value="7.10 Weryfikacja pierwszej wersji udoskonaleń &lt;br&gt;i ustalenie kolejnych etapów najbardziej wartościowych zmian" style="rounded=1;whiteSpace=wrap;html=1;" parent="1" vertex="1">
          <mxGeometry x="380" y="1710" width="120" height="90" as="geometry" />
        </mxCell>
        <mxCell id="lhQeCGYUJxPM1-3rOEWA-27" value="" style="edgeStyle=orthogonalEdgeStyle;rounded=0;orthogonalLoop=1;jettySize=auto;html=1;exitX=-0.005;exitY=0.644;exitDx=0;exitDy=0;exitPerimeter=0;entryX=0.75;entryY=0;entryDx=0;entryDy=0;dashed=1;strokeWidth=2;" parent="1" source="YzgCYqUCURwKcO3qDLiV-51" target="YzgCYqUCURwKcO3qDLiV-65" edge="1">
          <mxGeometry relative="1" as="geometry" />
        </mxCell>
        <mxCell id="YzgCYqUCURwKcO3qDLiV-51" value="7.11 Iteracyjne &lt;br&gt;wdrażanie kolejnych udoskonaleń, &lt;br&gt;aż do osiągnięcia celu poprawy lub określenia nowych celów &lt;br&gt;poprawy" style="ellipse;shape=umlControl;whiteSpace=wrap;html=1;strokeWidth=2;" parent="1" vertex="1">
          <mxGeometry x="210" y="1740" width="140" height="140" as="geometry" />
        </mxCell>
        <mxCell id="YzgCYqUCURwKcO3qDLiV-54" value="" style="edgeStyle=orthogonalEdgeStyle;rounded=0;orthogonalLoop=1;jettySize=auto;html=1;" parent="1" source="YzgCYqUCURwKcO3qDLiV-52" target="YzgCYqUCURwKcO3qDLiV-53" edge="1">
          <mxGeometry relative="1" as="geometry" />
        </mxCell>
        <mxCell id="YzgCYqUCURwKcO3qDLiV-52" value="7.12 Szczegółowe określenie celu &lt;br&gt;do osiągnięcia" style="rounded=1;whiteSpace=wrap;html=1;" parent="1" vertex="1">
          <mxGeometry x="660" y="1330" width="120" height="48" as="geometry" />
        </mxCell>
        <mxCell id="YzgCYqUCURwKcO3qDLiV-56" value="" style="edgeStyle=orthogonalEdgeStyle;rounded=0;orthogonalLoop=1;jettySize=auto;html=1;" parent="1" source="YzgCYqUCURwKcO3qDLiV-53" target="YzgCYqUCURwKcO3qDLiV-55" edge="1">
          <mxGeometry relative="1" as="geometry" />
        </mxCell>
        <mxCell id="YzgCYqUCURwKcO3qDLiV-53" value="7.13 Wykonanie planu wdrożenia &lt;br&gt;przy uwzględnieniu dostępnych zasobów" style="rounded=1;whiteSpace=wrap;html=1;" parent="1" vertex="1">
          <mxGeometry x="660" y="1400" width="120" height="60" as="geometry" />
        </mxCell>
        <mxCell id="YzgCYqUCURwKcO3qDLiV-58" value="" style="edgeStyle=orthogonalEdgeStyle;rounded=0;orthogonalLoop=1;jettySize=auto;html=1;" parent="1" source="YzgCYqUCURwKcO3qDLiV-55" target="YzgCYqUCURwKcO3qDLiV-57" edge="1">
          <mxGeometry relative="1" as="geometry" />
        </mxCell>
        <mxCell id="YzgCYqUCURwKcO3qDLiV-55" value="7.14 Weryfikacja planu i opracowanie harmonogramu wraz z harmonogramem wykorzystania zasobów" style="rounded=1;whiteSpace=wrap;html=1;" parent="1" vertex="1">
          <mxGeometry x="660" y="1480" width="120" height="90" as="geometry" />
        </mxCell>
        <mxCell id="YzgCYqUCURwKcO3qDLiV-60" value="" style="edgeStyle=orthogonalEdgeStyle;rounded=0;orthogonalLoop=1;jettySize=auto;html=1;" parent="1" source="YzgCYqUCURwKcO3qDLiV-57" target="YzgCYqUCURwKcO3qDLiV-59" edge="1">
          <mxGeometry relative="1" as="geometry" />
        </mxCell>
        <mxCell id="YzgCYqUCURwKcO3qDLiV-57" value="7.15 Identyfikacja ścieżki krytycznej projektu &lt;br&gt;i najważniejszych ryzyk &lt;br&gt;do monitorowania" style="rounded=1;whiteSpace=wrap;html=1;" parent="1" vertex="1">
          <mxGeometry x="660" y="1590" width="120" height="90" as="geometry" />
        </mxCell>
        <mxCell id="YzgCYqUCURwKcO3qDLiV-62" value="" style="edgeStyle=orthogonalEdgeStyle;rounded=0;orthogonalLoop=1;jettySize=auto;html=1;" parent="1" source="YzgCYqUCURwKcO3qDLiV-59" target="YzgCYqUCURwKcO3qDLiV-61" edge="1">
          <mxGeometry relative="1" as="geometry" />
        </mxCell>
        <mxCell id="YzgCYqUCURwKcO3qDLiV-59" value="7.16 Wprowadzenie ewentualnych korekt do planu" style="rounded=1;whiteSpace=wrap;html=1;" parent="1" vertex="1">
          <mxGeometry x="660" y="1700" width="120" height="50" as="geometry" />
        </mxCell>
        <mxCell id="YzgCYqUCURwKcO3qDLiV-64" value="" style="edgeStyle=orthogonalEdgeStyle;rounded=0;orthogonalLoop=1;jettySize=auto;html=1;" parent="1" source="YzgCYqUCURwKcO3qDLiV-61" target="YzgCYqUCURwKcO3qDLiV-63" edge="1">
          <mxGeometry relative="1" as="geometry" />
        </mxCell>
        <mxCell id="YzgCYqUCURwKcO3qDLiV-61" value="7.17 Realizacja &lt;br&gt;planu i monitorowanie sytuacji w celu identyfikacji konieczności wprowadzenia korekt" style="rounded=1;whiteSpace=wrap;html=1;" parent="1" vertex="1">
          <mxGeometry x="660" y="1770" width="120" height="90" as="geometry" />
        </mxCell>
        <mxCell id="lhQeCGYUJxPM1-3rOEWA-24" style="edgeStyle=orthogonalEdgeStyle;rounded=0;orthogonalLoop=1;jettySize=auto;html=1;exitX=0;exitY=0.25;exitDx=0;exitDy=0;entryX=0.75;entryY=0;entryDx=0;entryDy=0;dashed=1;strokeWidth=2;" parent="1" source="YzgCYqUCURwKcO3qDLiV-63" target="YzgCYqUCURwKcO3qDLiV-65" edge="1">
          <mxGeometry relative="1" as="geometry" />
        </mxCell>
        <mxCell id="YzgCYqUCURwKcO3qDLiV-63" value="7.18 Weryfikacja stopnia osiągnięcia celu poprawy" style="rounded=1;whiteSpace=wrap;html=1;" parent="1" vertex="1">
          <mxGeometry x="660" y="1880" width="120" height="50" as="geometry" />
        </mxCell>
        <mxCell id="lhQeCGYUJxPM1-3rOEWA-29" value="" style="edgeStyle=orthogonalEdgeStyle;rounded=0;orthogonalLoop=1;jettySize=auto;html=1;shape=link;" parent="1" source="YzgCYqUCURwKcO3qDLiV-65" target="YzgCYqUCURwKcO3qDLiV-67" edge="1">
          <mxGeometry relative="1" as="geometry" />
        </mxCell>
        <mxCell id="lhQeCGYUJxPM1-3rOEWA-34" value="" style="edgeStyle=orthogonalEdgeStyle;rounded=0;orthogonalLoop=1;jettySize=auto;html=1;shape=arrow;" parent="1" source="YzgCYqUCURwKcO3qDLiV-65" target="YzgCYqUCURwKcO3qDLiV-74" edge="1">
          <mxGeometry relative="1" as="geometry" />
        </mxCell>
        <mxCell id="YzgCYqUCURwKcO3qDLiV-65" value="8. Zaplanowanie ciągłego pozyskiwania informacji zwrotnej" style="rounded=1;whiteSpace=wrap;html=1;sketch=1;curveFitting=1;jiggle=2;" parent="1" vertex="1">
          <mxGeometry x="40" y="1920" width="160" height="120" as="geometry" />
        </mxCell>
        <mxCell id="YzgCYqUCURwKcO3qDLiV-69" value="" style="edgeStyle=orthogonalEdgeStyle;rounded=0;orthogonalLoop=1;jettySize=auto;html=1;" parent="1" source="YzgCYqUCURwKcO3qDLiV-67" target="YzgCYqUCURwKcO3qDLiV-68" edge="1">
          <mxGeometry relative="1" as="geometry" />
        </mxCell>
        <mxCell id="YzgCYqUCURwKcO3qDLiV-67" value="8.1 Ustalenie szczegółów metod pozyskiwania informacji zwrotnej&amp;nbsp;" style="rounded=1;whiteSpace=wrap;html=1;" parent="1" vertex="1">
          <mxGeometry x="240" y="1940" width="120" height="80" as="geometry" />
        </mxCell>
        <mxCell id="YzgCYqUCURwKcO3qDLiV-71" value="" style="edgeStyle=orthogonalEdgeStyle;rounded=0;orthogonalLoop=1;jettySize=auto;html=1;" parent="1" source="YzgCYqUCURwKcO3qDLiV-68" target="YzgCYqUCURwKcO3qDLiV-70" edge="1">
          <mxGeometry relative="1" as="geometry" />
        </mxCell>
        <mxCell id="YzgCYqUCURwKcO3qDLiV-68" value="8.2 Zaplanowanie regularnych cykli pozyskiwania informacji zwrotnej" style="rounded=1;whiteSpace=wrap;html=1;" parent="1" vertex="1">
          <mxGeometry x="380" y="1940" width="120" height="80" as="geometry" />
        </mxCell>
        <mxCell id="YzgCYqUCURwKcO3qDLiV-73" value="" style="edgeStyle=orthogonalEdgeStyle;rounded=0;orthogonalLoop=1;jettySize=auto;html=1;" parent="1" source="YzgCYqUCURwKcO3qDLiV-70" target="YzgCYqUCURwKcO3qDLiV-72" edge="1">
          <mxGeometry relative="1" as="geometry" />
        </mxCell>
        <mxCell id="YzgCYqUCURwKcO3qDLiV-70" value="8.3 Automatyzacja procesu pozyskiwania informacji zwrotnej tam, gdzie to możliwe" style="rounded=1;whiteSpace=wrap;html=1;" parent="1" vertex="1">
          <mxGeometry x="520" y="1940" width="120" height="80" as="geometry" />
        </mxCell>
        <mxCell id="lhQeCGYUJxPM1-3rOEWA-33" style="edgeStyle=orthogonalEdgeStyle;rounded=0;orthogonalLoop=1;jettySize=auto;html=1;exitX=0.5;exitY=1;exitDx=0;exitDy=0;entryX=0.75;entryY=0;entryDx=0;entryDy=0;dashed=1;strokeWidth=2;" parent="1" source="YzgCYqUCURwKcO3qDLiV-72" target="YzgCYqUCURwKcO3qDLiV-74" edge="1">
          <mxGeometry relative="1" as="geometry">
            <Array as="points">
              <mxPoint x="720" y="2060" />
              <mxPoint x="160" y="2060" />
            </Array>
          </mxGeometry>
        </mxCell>
        <mxCell id="YzgCYqUCURwKcO3qDLiV-72" value="8.4 Zaangażowanie interesariuszy &lt;br&gt;w proces udzielania informacji zwrotnej" style="rounded=1;whiteSpace=wrap;html=1;" parent="1" vertex="1">
          <mxGeometry x="660" y="1940" width="120" height="80" as="geometry" />
        </mxCell>
        <mxCell id="lhQeCGYUJxPM1-3rOEWA-32" value="" style="edgeStyle=orthogonalEdgeStyle;rounded=0;orthogonalLoop=1;jettySize=auto;html=1;shape=link;" parent="1" source="YzgCYqUCURwKcO3qDLiV-74" target="YzgCYqUCURwKcO3qDLiV-75" edge="1">
          <mxGeometry relative="1" as="geometry" />
        </mxCell>
        <mxCell id="vHDiEHz5v03A65j5FyS1-6" style="edgeStyle=orthogonalEdgeStyle;rounded=0;orthogonalLoop=1;jettySize=auto;html=1;entryX=0;entryY=0.5;entryDx=0;entryDy=0;shape=flexArrow;exitX=0.5;exitY=1;exitDx=0;exitDy=0;" parent="1" source="YzgCYqUCURwKcO3qDLiV-74" target="SLQnQ5sDmMqCRToJFb2x-1" edge="1">
          <mxGeometry relative="1" as="geometry">
            <Array as="points">
              <mxPoint x="120" y="2230" />
              <mxPoint x="10" y="2230" />
              <mxPoint x="10" y="60" />
            </Array>
          </mxGeometry>
        </mxCell>
        <mxCell id="YzgCYqUCURwKcO3qDLiV-74" value="9. Ciągłe doskonalenie" style="rounded=1;whiteSpace=wrap;html=1;sketch=1;curveFitting=1;jiggle=2;" parent="1" vertex="1">
          <mxGeometry x="40" y="2080" width="160" height="120" as="geometry" />
        </mxCell>
        <mxCell id="YzgCYqUCURwKcO3qDLiV-77" value="" style="edgeStyle=orthogonalEdgeStyle;rounded=0;orthogonalLoop=1;jettySize=auto;html=1;shape=link;dashed=1;dashPattern=1 1;" parent="1" source="YzgCYqUCURwKcO3qDLiV-75" target="YzgCYqUCURwKcO3qDLiV-76" edge="1">
          <mxGeometry relative="1" as="geometry" />
        </mxCell>
        <mxCell id="lhQeCGYUJxPM1-3rOEWA-30" value="" style="edgeStyle=orthogonalEdgeStyle;rounded=0;orthogonalLoop=1;jettySize=auto;html=1;" parent="1" source="YzgCYqUCURwKcO3qDLiV-75" target="YzgCYqUCURwKcO3qDLiV-80" edge="1">
          <mxGeometry relative="1" as="geometry" />
        </mxCell>
        <mxCell id="YzgCYqUCURwKcO3qDLiV-75" value="9.1 Identyfikacja&lt;br&gt;i ustanowienie wiarygodnych wskaźników&amp;nbsp;efektów działań uczelni&amp;nbsp;" style="rounded=1;whiteSpace=wrap;html=1;" parent="1" vertex="1">
          <mxGeometry x="240" y="2100" width="120" height="80" as="geometry" />
        </mxCell>
        <mxCell id="YzgCYqUCURwKcO3qDLiV-79" value="" style="edgeStyle=orthogonalEdgeStyle;rounded=0;orthogonalLoop=1;jettySize=auto;html=1;endArrow=classic;endFill=0;" parent="1" source="YzgCYqUCURwKcO3qDLiV-76" target="YzgCYqUCURwKcO3qDLiV-78" edge="1">
          <mxGeometry relative="1" as="geometry" />
        </mxCell>
        <mxCell id="YzgCYqUCURwKcO3qDLiV-76" value="&lt;i&gt;9.1.1 Opracowanie zestawu wskaźników na podstawie dostępnej literatury oraz własnych badan uwzględniających specyfikę organizacji&lt;/i&gt;" style="whiteSpace=wrap;html=1;rounded=1;dashed=1;dashPattern=1 1;" parent="1" vertex="1">
          <mxGeometry x="390" y="2080" width="120" height="120" as="geometry" />
        </mxCell>
        <mxCell id="vHDiEHz5v03A65j5FyS1-1" style="edgeStyle=orthogonalEdgeStyle;rounded=0;orthogonalLoop=1;jettySize=auto;html=1;exitX=1;exitY=0.5;exitDx=0;exitDy=0;entryX=0.75;entryY=0;entryDx=0;entryDy=0;dashed=1;" parent="1" source="YzgCYqUCURwKcO3qDLiV-78" target="YzgCYqUCURwKcO3qDLiV-80" edge="1">
          <mxGeometry relative="1" as="geometry">
            <Array as="points">
              <mxPoint x="660" y="2140" />
              <mxPoint x="660" y="2210" />
              <mxPoint x="330" y="2210" />
            </Array>
          </mxGeometry>
        </mxCell>
        <mxCell id="YzgCYqUCURwKcO3qDLiV-78" value="&lt;i&gt;9.1.2 Podjęcie zobowiązania &lt;br&gt;przez najwyższe kierownictwo do długoterminowego utrzymania pomiaru wybranych stałych wskaźników&lt;/i&gt;" style="whiteSpace=wrap;html=1;rounded=1;dashed=1;dashPattern=1 1;" parent="1" vertex="1">
          <mxGeometry x="530" y="2080" width="120" height="120" as="geometry" />
        </mxCell>
        <mxCell id="YzgCYqUCURwKcO3qDLiV-83" value="" style="edgeStyle=orthogonalEdgeStyle;rounded=0;orthogonalLoop=1;jettySize=auto;html=1;shape=link;dashed=1;dashPattern=1 1;" parent="1" source="YzgCYqUCURwKcO3qDLiV-80" target="YzgCYqUCURwKcO3qDLiV-82" edge="1">
          <mxGeometry relative="1" as="geometry" />
        </mxCell>
        <mxCell id="lhQeCGYUJxPM1-3rOEWA-31" value="" style="edgeStyle=orthogonalEdgeStyle;rounded=0;orthogonalLoop=1;jettySize=auto;html=1;" parent="1" source="YzgCYqUCURwKcO3qDLiV-80" target="YzgCYqUCURwKcO3qDLiV-86" edge="1">
          <mxGeometry relative="1" as="geometry" />
        </mxCell>
        <mxCell id="YzgCYqUCURwKcO3qDLiV-80" value="9.2 Ustanowienie cykli pomiaru &lt;br&gt;i weryfikacji efektów działań uczelni&amp;nbsp;" style="rounded=1;whiteSpace=wrap;html=1;" parent="1" vertex="1">
          <mxGeometry x="240" y="2230" width="120" height="80" as="geometry" />
        </mxCell>
        <mxCell id="YzgCYqUCURwKcO3qDLiV-85" value="" style="edgeStyle=orthogonalEdgeStyle;rounded=0;orthogonalLoop=1;jettySize=auto;html=1;endArrow=classic;endFill=0;" parent="1" source="YzgCYqUCURwKcO3qDLiV-82" target="YzgCYqUCURwKcO3qDLiV-84" edge="1">
          <mxGeometry relative="1" as="geometry" />
        </mxCell>
        <mxCell id="YzgCYqUCURwKcO3qDLiV-82" value="&lt;i&gt;9.2.1 Ustalenie potrzeb w zakresie długości cyklu pomiarów&lt;/i&gt;" style="rounded=1;whiteSpace=wrap;html=1;dashed=1;dashPattern=1 1;" parent="1" vertex="1">
          <mxGeometry x="390" y="2235" width="120" height="70" as="geometry" />
        </mxCell>
        <mxCell id="vHDiEHz5v03A65j5FyS1-2" style="edgeStyle=orthogonalEdgeStyle;rounded=0;orthogonalLoop=1;jettySize=auto;html=1;exitX=1;exitY=0.5;exitDx=0;exitDy=0;entryX=0.75;entryY=0;entryDx=0;entryDy=0;dashed=1;" parent="1" source="YzgCYqUCURwKcO3qDLiV-84" target="YzgCYqUCURwKcO3qDLiV-86" edge="1">
          <mxGeometry relative="1" as="geometry">
            <Array as="points">
              <mxPoint x="660" y="2270" />
              <mxPoint x="660" y="2320" />
              <mxPoint x="330" y="2320" />
            </Array>
          </mxGeometry>
        </mxCell>
        <mxCell id="YzgCYqUCURwKcO3qDLiV-84" value="&lt;i&gt;9.2.2 Ustanowienie zestawu metod pomiaru&amp;nbsp;i weryfikacji efektów działań&lt;/i&gt;" style="rounded=1;whiteSpace=wrap;html=1;dashed=1;dashPattern=1 1;" parent="1" vertex="1">
          <mxGeometry x="530" y="2235" width="120" height="70" as="geometry" />
        </mxCell>
        <mxCell id="YzgCYqUCURwKcO3qDLiV-89" value="" style="edgeStyle=orthogonalEdgeStyle;rounded=0;orthogonalLoop=1;jettySize=auto;html=1;" parent="1" source="YzgCYqUCURwKcO3qDLiV-86" target="YzgCYqUCURwKcO3qDLiV-88" edge="1">
          <mxGeometry relative="1" as="geometry" />
        </mxCell>
        <mxCell id="YzgCYqUCURwKcO3qDLiV-86" value="9.3 Ustanowienie cykli przeglądu wniosków z pomiarów oraz pozyskiwania informacji zwrotnej&amp;nbsp;" style="rounded=1;whiteSpace=wrap;html=1;" parent="1" vertex="1">
          <mxGeometry x="240" y="2340" width="120" height="80" as="geometry" />
        </mxCell>
        <mxCell id="YzgCYqUCURwKcO3qDLiV-91" value="" style="edgeStyle=orthogonalEdgeStyle;rounded=0;orthogonalLoop=1;jettySize=auto;html=1;" parent="1" source="YzgCYqUCURwKcO3qDLiV-88" target="YzgCYqUCURwKcO3qDLiV-90" edge="1">
          <mxGeometry relative="1" as="geometry" />
        </mxCell>
        <mxCell id="YzgCYqUCURwKcO3qDLiV-88" value="9.4 Ustanowienie cykli regularnej analizy obszarów&lt;br&gt;do poprawy oraz wdrażania zmian" style="rounded=1;whiteSpace=wrap;html=1;" parent="1" vertex="1">
          <mxGeometry x="400" y="2340" width="120" height="80" as="geometry" />
        </mxCell>
        <mxCell id="YzgCYqUCURwKcO3qDLiV-93" value="" style="edgeStyle=orthogonalEdgeStyle;rounded=0;orthogonalLoop=1;jettySize=auto;html=1;" parent="1" source="YzgCYqUCURwKcO3qDLiV-90" target="YzgCYqUCURwKcO3qDLiV-92" edge="1">
          <mxGeometry relative="1" as="geometry" />
        </mxCell>
        <mxCell id="YzgCYqUCURwKcO3qDLiV-90" value="9.5 Zaplanowanie sposobów &lt;br&gt;na świętowanie sukcesów w ramach organizacji" style="rounded=1;whiteSpace=wrap;html=1;" parent="1" vertex="1">
          <mxGeometry x="560" y="2340" width="120" height="80" as="geometry" />
        </mxCell>
        <mxCell id="YzgCYqUCURwKcO3qDLiV-95" value="" style="edgeStyle=orthogonalEdgeStyle;rounded=0;orthogonalLoop=1;jettySize=auto;html=1;" parent="1" source="YzgCYqUCURwKcO3qDLiV-92" target="YzgCYqUCURwKcO3qDLiV-94" edge="1">
          <mxGeometry relative="1" as="geometry" />
        </mxCell>
        <mxCell id="YzgCYqUCURwKcO3qDLiV-92" value="9.6 Ustanowienie sposobów transparentnego gromadzenia wiedzy" style="rounded=1;whiteSpace=wrap;html=1;" parent="1" vertex="1">
          <mxGeometry x="560" y="2440" width="120" height="80" as="geometry" />
        </mxCell>
        <mxCell id="vHDiEHz5v03A65j5FyS1-4" value="" style="edgeStyle=orthogonalEdgeStyle;rounded=0;orthogonalLoop=1;jettySize=auto;html=1;" parent="1" source="YzgCYqUCURwKcO3qDLiV-94" target="vHDiEHz5v03A65j5FyS1-3" edge="1">
          <mxGeometry relative="1" as="geometry" />
        </mxCell>
        <mxCell id="YzgCYqUCURwKcO3qDLiV-94" value="9.7 Ustanowienie regularnych przeglądów procesu ciągłego doskonalenia&amp;nbsp;" style="rounded=1;whiteSpace=wrap;html=1;" parent="1" vertex="1">
          <mxGeometry x="400" y="2440" width="120" height="80" as="geometry" />
        </mxCell>
        <mxCell id="vHDiEHz5v03A65j5FyS1-5" style="edgeStyle=orthogonalEdgeStyle;rounded=0;orthogonalLoop=1;jettySize=auto;html=1;exitX=0;exitY=0.5;exitDx=0;exitDy=0;entryX=0.75;entryY=1;entryDx=0;entryDy=0;dashed=1;strokeWidth=2;" parent="1" source="vHDiEHz5v03A65j5FyS1-3" target="YzgCYqUCURwKcO3qDLiV-74" edge="1">
          <mxGeometry relative="1" as="geometry" />
        </mxCell>
        <mxCell id="vHDiEHz5v03A65j5FyS1-3" value="9.8 Regularne wdrażanie usprawnień procesu ciągłego doskonalenia&amp;nbsp;" style="rounded=1;whiteSpace=wrap;html=1;" parent="1" vertex="1">
          <mxGeometry x="240" y="2440" width="120" height="80" as="geometry" />
        </mxCell>
        <mxCell id="vHDiEHz5v03A65j5FyS1-7" style="edgeStyle=orthogonalEdgeStyle;rounded=0;orthogonalLoop=1;jettySize=auto;html=1;exitX=0.5;exitY=1;exitDx=0;exitDy=0;entryX=0.992;entryY=0.648;entryDx=0;entryDy=0;entryPerimeter=0;" parent="1" source="YzgCYqUCURwKcO3qDLiV-47" target="YzgCYqUCURwKcO3qDLiV-51" edge="1">
          <mxGeometry relative="1" as="geometry" />
        </mxCell>
      </root>
    </mxGraphModel>
  </diagram>
</mxfile>
